<svg width="54" height="47" viewBox="0 0 54 47" fill="none" xmlns="http://www.w3.org/2000/svg">
<path d="M43.7022 26.8524C43.0204 26.8524 42.3665 27.0882 41.8844 27.508C41.4023 27.9279 41.1315 28.4973 41.1315 29.091V29.9417L37.3268 26.6285C35.9834 25.4679 34.1677 24.8166 32.2754 24.8166C30.383 24.8166 28.5673 25.4679 27.2239 26.6285L25.4244 28.1955L19.049 22.6437C17.6868 21.5146 15.8782 20.8848 13.9976 20.8848C12.1169 20.8848 10.3083 21.5146 8.9461 22.6437L5.14144 25.9569V13.4206C5.14144 12.8269 5.41228 12.2575 5.89438 11.8376C6.37649 11.4178 7.03036 11.182 7.71216 11.182H25.7072C26.389 11.182 27.0429 10.9461 27.525 10.5263C28.0071 10.1065 28.2779 9.53706 28.2779 8.94334C28.2779 8.34962 28.0071 7.78022 27.525 7.3604C27.0429 6.94057 26.389 6.70472 25.7072 6.70472H7.71216C5.66677 6.70472 3.70515 7.41228 2.25884 8.67175C0.812529 9.93122 0 11.6394 0 13.4206V40.2841C0 42.0653 0.812529 43.7735 2.25884 45.033C3.70515 46.2924 5.66677 47 7.71216 47H38.5608C40.6062 47 42.5678 46.2924 44.0141 45.033C45.4604 43.7735 46.2729 42.0653 46.2729 40.2841V29.091C46.2729 28.4973 46.0021 27.9279 45.52 27.508C45.0379 27.0882 44.384 26.8524 43.7022 26.8524ZM7.71216 42.5227C7.03036 42.5227 6.37649 42.2869 5.89438 41.8671C5.41228 41.4472 5.14144 40.8778 5.14144 40.2841V32.2922L12.5965 25.8002C12.9742 25.4868 13.4759 25.312 13.9976 25.312C14.5193 25.312 15.0209 25.4868 15.3986 25.8002L23.5478 32.8966L34.6019 42.5227H7.71216ZM41.1315 40.2841C41.1278 40.7127 40.9655 41.1287 40.6688 41.4706L29.0748 31.3296L30.8743 29.7626C31.0586 29.5988 31.2786 29.4686 31.5214 29.3798C31.7642 29.291 32.0249 29.2452 32.2882 29.2452C32.5516 29.2452 32.8123 29.291 33.0551 29.3798C33.2978 29.4686 33.5178 29.5988 33.7021 29.7626L41.1315 36.277V40.2841ZM53.2396 7.35392L45.5274 0.638039C45.2829 0.434233 44.9946 0.274473 44.6791 0.167927C44.0532 -0.0559758 43.3512 -0.0559758 42.7253 0.167927C42.4098 0.274473 42.1215 0.434233 41.877 0.638039L34.1649 7.35392C33.9252 7.56264 33.735 7.81044 33.6053 8.08315C33.4756 8.35587 33.4088 8.64816 33.4088 8.94334C33.4088 9.53949 33.6808 10.1112 34.1649 10.5328C34.6489 10.9543 35.3055 11.1911 35.9901 11.1911C36.6746 11.1911 37.3312 10.9543 37.8153 10.5328L41.1315 7.62255V20.1365C41.1315 20.7302 41.4023 21.2996 41.8844 21.7194C42.3665 22.1392 43.0204 22.3751 43.7022 22.3751C44.384 22.3751 45.0379 22.1392 45.52 21.7194C46.0021 21.2996 46.2729 20.7302 46.2729 20.1365V7.62255L49.5892 10.5328C49.8281 10.7426 50.1125 10.9091 50.4257 11.0228C50.739 11.1364 51.075 11.195 51.4144 11.195C51.7537 11.195 52.0897 11.1364 52.403 11.0228C52.7163 10.9091 53.0006 10.7426 53.2396 10.5328C53.4805 10.3247 53.6718 10.0771 53.8023 9.80427C53.9328 9.53147 54 9.23887 54 8.94334C54 8.64782 53.9328 8.35522 53.8023 8.08242C53.6718 7.80962 53.4805 7.56203 53.2396 7.35392Z" fill="#1F3A69"/>
</svg>
